<svg version="1.1" id="Layer_1" xmlns="http://www.w3.org/2000/svg" xmlns:xlink="http://www.w3.org/1999/xlink" x="0px" y="0px"
	 width="100%" viewBox="0 0 1024 1024" enable-background="new 0 0 1024 1024" xml:space="preserve">
<path fill="#000000" opacity="1.000000" stroke="none" 
	d="
M586.676636,751.831421 
	C565.075989,757.646362 543.453491,759.210815 521.551636,759.558533 
	C490.446259,760.052246 460.188873,755.387573 430.684143,746.105530 
	C394.234192,734.638550 362.312500,715.199097 333.746826,689.829834 
	C308.847015,667.716125 289.848297,641.329956 273.919342,612.328247 
	C258.338928,583.961182 248.350128,553.815979 243.933426,521.882080 
	C241.261826,502.565704 241.016144,483.113281 242.496399,463.589111 
	C244.886612,432.062683 252.297424,401.964691 265.498322,373.196014 
	C285.787140,328.980713 314.514191,291.957214 354.676147,263.781342 
	C390.647156,238.545670 430.113892,222.388260 473.186371,214.894333 
	C496.562744,210.827209 520.162720,211.023041 543.834351,212.513824 
	C595.719910,215.781403 642.539246,233.074326 685.125916,262.420990 
	C712.372070,281.196472 734.295349,305.139282 752.767151,332.453644 
	C774.050476,363.925293 788.240601,398.397552 795.598267,435.523651 
	C800.236084,458.925751 800.481628,482.689178 798.553223,506.536438 
	C796.855469,527.531311 793.178101,548.008911 786.634338,568.029602 
	C773.735291,607.494568 752.699341,642.191956 724.447815,672.357483 
	C686.754211,712.604675 640.437256,738.369873 586.676636,751.831421 
M346.756409,321.260651 
	C336.113647,331.340027 327.304321,342.993134 318.603119,354.684235 
	C311.036102,364.851379 306.162048,376.560883 300.704590,387.941620 
	C295.571411,398.645966 291.597351,409.781891 288.441315,421.105591 
	C280.899384,448.165833 280.089813,475.810822 282.064972,503.746094 
	C283.822510,528.603760 289.425110,552.415710 299.228424,575.193909 
	C319.398926,622.060425 352.289764,658.204041 394.345795,686.389343 
	C423.139618,705.686523 455.199860,716.067383 489.342499,720.567749 
	C497.135559,721.595032 497.647400,721.114746 497.649078,713.339600 
	C497.653931,691.007446 497.750549,668.674438 497.570129,646.343750 
	C497.534698,641.959534 498.718445,640.348022 503.258636,640.920166 
	C513.705017,642.236694 524.237244,641.788940 534.717896,641.493652 
	C539.212402,641.367065 540.432861,642.622070 540.395020,647.009766 
	C540.212463,668.173645 540.323181,689.340149 540.336548,710.505676 
	C540.343018,720.733826 540.349121,720.728333 550.709961,719.748840 
	C581.760193,716.813599 610.268372,706.239746 637.096008,690.774048 
	C643.372742,687.155518 650.017151,683.959534 655.085144,678.696899 
	C653.932068,676.503418 652.757324,674.667542 651.954834,672.681335 
	C642.128967,648.362244 629.544678,625.406128 615.968811,603.093079 
	C592.823059,565.051392 572.834656,525.327332 551.853271,486.126373 
	C550.552063,483.695251 550.005249,481.306549 550.419373,478.478363 
	C551.432373,471.559906 551.874268,464.630768 551.154419,457.584747 
	C550.633118,452.481476 550.880615,447.251129 551.265930,442.113495 
	C552.164734,430.127075 552.049622,418.148621 551.654358,406.155396 
	C551.555481,403.152527 549.240967,400.451630 550.598328,395.867645 
	C575.820374,446.781860 602.307800,495.630219 629.074768,544.413757 
	C631.339172,533.635681 630.196594,523.057434 630.063965,512.466064 
	C629.333740,454.153931 629.332581,395.838074 629.677063,337.522095 
	C629.695618,334.388031 630.474609,333.088318 633.977356,333.281616 
	C644.953735,333.887238 655.948364,334.103119 666.921326,332.970367 
	C668.357849,332.822113 669.916321,332.338409 671.447144,333.849182 
	C671.492432,443.611542 671.756836,553.619568 673.207397,663.873657 
	C676.038940,663.283875 677.240540,661.820190 678.574585,660.648132 
	C697.491516,644.028198 713.368225,624.813049 726.643677,603.476807 
	C744.981689,574.004089 755.337769,541.860535 759.025024,507.345459 
	C761.201050,486.976624 760.443542,466.771118 757.131165,446.722168 
	C751.111267,410.285431 736.375000,377.535400 714.763611,347.548920 
	C689.206665,312.087860 655.941345,286.648163 616.293396,269.141846 
	C594.379822,259.466034 571.629456,253.267639 547.468994,251.860931 
	C539.721069,251.409836 539.338806,253.654190 539.335205,259.640961 
	C539.324280,277.787567 539.844482,295.923340 539.672791,314.082397 
	C539.471436,335.381927 539.782471,356.687775 539.619019,378.005493 
	C539.174927,435.919098 538.347534,493.853973 540.717651,551.320557 
	C528.030029,551.320557 515.423462,551.118347 502.829071,551.422302 
	C497.942688,551.540222 496.863770,549.387695 496.902283,545.179016 
	C496.995331,535.015564 496.803986,524.849915 496.843201,514.685608 
	C497.059937,458.529846 496.767426,402.375183 497.380737,346.216278 
	C497.677032,319.084930 497.119751,291.909363 496.850586,264.754761 
	C496.819183,261.588593 496.769867,258.422241 496.779083,255.256165 
	C496.787018,252.542801 495.628021,251.218765 492.791107,251.578857 
	C487.518677,252.248093 482.190674,252.596451 476.970978,253.546341 
	C426.864105,262.665009 383.879669,285.581177 346.756409,321.260651 
z"/>
<path fill="#000000" opacity="1.000000" stroke="none" 
	d="
M517.232666,620.393921 
	C483.120178,622.360352 449.448700,621.343445 415.800873,621.038269 
	C402.162323,620.914551 388.499542,620.088562 374.849640,620.427307 
	C369.746490,620.554016 368.653381,618.450806 368.687897,613.959412 
	C368.849121,592.961975 368.837097,571.963074 368.829163,550.964661 
	C368.802460,480.303345 368.804657,409.641907 368.597839,338.981079 
	C368.582825,333.855988 370.085052,332.369293 375.089478,332.551544 
	C385.575623,332.933441 396.085938,332.924133 406.578827,332.708771 
	C410.535065,332.627594 411.305542,334.223907 411.292694,337.708496 
	C411.190125,365.539398 411.199982,393.370819 411.216217,421.202057 
	C411.245392,471.197906 411.340088,521.193848 411.279480,571.189575 
	C411.274567,575.252197 412.468628,576.724915 416.665375,576.714050 
	C462.328339,576.595337 507.991760,576.664307 553.654907,576.584839 
	C558.972107,576.575562 564.291687,576.027588 569.603577,575.639282 
	C572.932678,575.395935 574.385803,576.569397 574.378845,580.153870 
	C574.355042,592.467712 576.431824,604.662720 576.660217,616.989014 
	C576.726807,620.583557 575.725037,621.423340 572.652954,621.367981 
	C558.502014,621.112610 544.335571,622.012512 530.196045,620.559875 
	C526.070190,620.135986 521.871094,620.425659 517.232666,620.393921 
z"/>
<path fill="#000000" opacity="1.000000" stroke="none" 
	d="
M724.155151,467.393921 
	C733.967041,472.526978 737.647766,479.885437 734.830688,488.181915 
	C731.813416,497.067902 723.257324,502.348785 713.661072,501.247955 
	C705.587585,500.321838 698.164429,491.932617 697.710693,483.221771 
	C697.184265,473.114136 706.132812,465.573700 717.909302,466.290985 
	C719.883118,466.411224 721.834045,466.907196 724.155151,467.393921 
z"/>
<path fill="#000000" opacity="1.000000" stroke="none" 
	d="
M309.231995,491.471039 
	C302.984711,480.064697 311.472656,469.170135 319.461853,467.318756 
	C330.614990,464.734131 339.657318,467.809326 342.908142,478.840607 
	C345.411499,487.335480 341.193512,495.633698 333.002594,499.304413 
	C323.630707,503.504425 315.639771,500.961304 309.231995,491.471039 
z"/>
</svg>